<mxfile host="app.diagrams.net" modified="2024-03-02T10:46:06.418Z" agent="Mozilla/5.0 (Windows NT 10.0; Win64; x64) AppleWebKit/537.36 (KHTML, like Gecko) Chrome/121.0.0.0 Safari/537.36" etag="ENMQbpJWgSmNSA0iGmGl" version="24.0.0" type="device">
  <diagram name="Page-1" id="_APaYUxMuzZYLyiA_YeT">
    <mxGraphModel dx="1477" dy="614" grid="1" gridSize="10" guides="1" tooltips="1" connect="1" arrows="1" fold="1" page="1" pageScale="1" pageWidth="850" pageHeight="1100" math="0" shadow="0">
      <root>
        <mxCell id="0" />
        <mxCell id="1" parent="0" />
        <mxCell id="hq5-iCGdHiGfxWnnt3Ot-1" value="&lt;font style=&quot;font-size: 18px;&quot;&gt;&lt;b&gt;User&amp;nbsp;&lt;/b&gt;&lt;/font&gt;" style="whiteSpace=wrap;html=1;align=center;" vertex="1" parent="1">
          <mxGeometry x="370" y="210" width="130" height="50" as="geometry" />
        </mxCell>
        <mxCell id="hq5-iCGdHiGfxWnnt3Ot-3" value="&lt;font style=&quot;font-size: 14px;&quot;&gt;E-Mail&lt;/font&gt;" style="ellipse;whiteSpace=wrap;html=1;align=center;" vertex="1" parent="1">
          <mxGeometry x="450" y="320" width="100" height="40" as="geometry" />
        </mxCell>
        <mxCell id="hq5-iCGdHiGfxWnnt3Ot-4" value="&lt;font style=&quot;font-size: 14px;&quot;&gt;&lt;b&gt;Id&lt;/b&gt;&lt;/font&gt;" style="ellipse;whiteSpace=wrap;html=1;align=center;fontStyle=4;" vertex="1" parent="1">
          <mxGeometry x="385" y="50" width="100" height="40" as="geometry" />
        </mxCell>
        <mxCell id="hq5-iCGdHiGfxWnnt3Ot-5" value="&lt;font style=&quot;font-size: 14px;&quot;&gt;First name&lt;/font&gt;" style="ellipse;whiteSpace=wrap;html=1;align=center;" vertex="1" parent="1">
          <mxGeometry x="220" y="170" width="100" height="40" as="geometry" />
        </mxCell>
        <mxCell id="hq5-iCGdHiGfxWnnt3Ot-6" value="&lt;font style=&quot;font-size: 14px;&quot;&gt;Dob&lt;/font&gt;" style="ellipse;whiteSpace=wrap;html=1;align=center;" vertex="1" parent="1">
          <mxGeometry x="220" y="270" width="100" height="40" as="geometry" />
        </mxCell>
        <mxCell id="hq5-iCGdHiGfxWnnt3Ot-7" value="&lt;font style=&quot;font-size: 14px;&quot;&gt;Last name&lt;/font&gt;" style="ellipse;whiteSpace=wrap;html=1;align=center;" vertex="1" parent="1">
          <mxGeometry x="300" y="100" width="100" height="40" as="geometry" />
        </mxCell>
        <mxCell id="hq5-iCGdHiGfxWnnt3Ot-8" value="&lt;font style=&quot;font-size: 14px;&quot;&gt;Phone No&lt;/font&gt;" style="ellipse;whiteSpace=wrap;html=1;align=center;" vertex="1" parent="1">
          <mxGeometry x="325" y="320" width="100" height="40" as="geometry" />
        </mxCell>
        <mxCell id="hq5-iCGdHiGfxWnnt3Ot-9" value="&lt;font style=&quot;font-size: 14px;&quot;&gt;Rating&lt;/font&gt;" style="ellipse;whiteSpace=wrap;html=1;align=center;" vertex="1" parent="1">
          <mxGeometry x="470" y="100" width="100" height="40" as="geometry" />
        </mxCell>
        <mxCell id="hq5-iCGdHiGfxWnnt3Ot-10" value="" style="endArrow=none;html=1;rounded=0;entryX=0.5;entryY=1;entryDx=0;entryDy=0;" edge="1" parent="1" source="hq5-iCGdHiGfxWnnt3Ot-1" target="hq5-iCGdHiGfxWnnt3Ot-4">
          <mxGeometry relative="1" as="geometry">
            <mxPoint x="340" y="230" as="sourcePoint" />
            <mxPoint x="500" y="230" as="targetPoint" />
          </mxGeometry>
        </mxCell>
        <mxCell id="hq5-iCGdHiGfxWnnt3Ot-12" value="" style="endArrow=none;html=1;rounded=0;entryX=1;entryY=0.5;entryDx=0;entryDy=0;exitX=0;exitY=0.5;exitDx=0;exitDy=0;" edge="1" parent="1" source="hq5-iCGdHiGfxWnnt3Ot-1" target="hq5-iCGdHiGfxWnnt3Ot-6">
          <mxGeometry relative="1" as="geometry">
            <mxPoint x="370" y="230" as="sourcePoint" />
            <mxPoint x="445" y="140" as="targetPoint" />
          </mxGeometry>
        </mxCell>
        <mxCell id="hq5-iCGdHiGfxWnnt3Ot-13" value="" style="endArrow=none;html=1;rounded=0;entryX=1;entryY=0.5;entryDx=0;entryDy=0;exitX=0;exitY=0.5;exitDx=0;exitDy=0;" edge="1" parent="1" source="hq5-iCGdHiGfxWnnt3Ot-1" target="hq5-iCGdHiGfxWnnt3Ot-5">
          <mxGeometry relative="1" as="geometry">
            <mxPoint x="455" y="230" as="sourcePoint" />
            <mxPoint x="455" y="150" as="targetPoint" />
          </mxGeometry>
        </mxCell>
        <mxCell id="hq5-iCGdHiGfxWnnt3Ot-14" value="" style="endArrow=none;html=1;rounded=0;entryX=0.5;entryY=1;entryDx=0;entryDy=0;exitX=0.5;exitY=0;exitDx=0;exitDy=0;" edge="1" parent="1" source="hq5-iCGdHiGfxWnnt3Ot-1" target="hq5-iCGdHiGfxWnnt3Ot-7">
          <mxGeometry relative="1" as="geometry">
            <mxPoint x="465" y="240" as="sourcePoint" />
            <mxPoint x="465" y="160" as="targetPoint" />
          </mxGeometry>
        </mxCell>
        <mxCell id="hq5-iCGdHiGfxWnnt3Ot-15" value="" style="endArrow=none;html=1;rounded=0;entryX=0.5;entryY=1;entryDx=0;entryDy=0;exitX=0.5;exitY=0;exitDx=0;exitDy=0;" edge="1" parent="1" source="hq5-iCGdHiGfxWnnt3Ot-1" target="hq5-iCGdHiGfxWnnt3Ot-9">
          <mxGeometry relative="1" as="geometry">
            <mxPoint x="475" y="250" as="sourcePoint" />
            <mxPoint x="475" y="170" as="targetPoint" />
          </mxGeometry>
        </mxCell>
        <mxCell id="hq5-iCGdHiGfxWnnt3Ot-16" value="" style="endArrow=none;html=1;rounded=0;entryX=0.5;entryY=0;entryDx=0;entryDy=0;exitX=0.5;exitY=1;exitDx=0;exitDy=0;" edge="1" parent="1" source="hq5-iCGdHiGfxWnnt3Ot-1" target="hq5-iCGdHiGfxWnnt3Ot-3">
          <mxGeometry relative="1" as="geometry">
            <mxPoint x="485" y="260" as="sourcePoint" />
            <mxPoint x="485" y="180" as="targetPoint" />
          </mxGeometry>
        </mxCell>
        <mxCell id="hq5-iCGdHiGfxWnnt3Ot-17" value="" style="endArrow=none;html=1;rounded=0;entryX=0.5;entryY=0;entryDx=0;entryDy=0;exitX=0.5;exitY=1;exitDx=0;exitDy=0;" edge="1" parent="1" source="hq5-iCGdHiGfxWnnt3Ot-1" target="hq5-iCGdHiGfxWnnt3Ot-8">
          <mxGeometry relative="1" as="geometry">
            <mxPoint x="495" y="270" as="sourcePoint" />
            <mxPoint x="495" y="190" as="targetPoint" />
          </mxGeometry>
        </mxCell>
        <mxCell id="hq5-iCGdHiGfxWnnt3Ot-18" value="&lt;font style=&quot;font-size: 18px;&quot;&gt;&lt;b&gt;Article&lt;/b&gt;&lt;/font&gt;" style="whiteSpace=wrap;html=1;align=center;" vertex="1" parent="1">
          <mxGeometry x="750" y="210" width="130" height="50" as="geometry" />
        </mxCell>
        <mxCell id="hq5-iCGdHiGfxWnnt3Ot-19" value="&lt;font style=&quot;font-size: 14px;&quot;&gt;Writes&lt;/font&gt;" style="shape=rhombus;perimeter=rhombusPerimeter;whiteSpace=wrap;html=1;align=center;" vertex="1" parent="1">
          <mxGeometry x="570" y="205" width="100" height="60" as="geometry" />
        </mxCell>
        <mxCell id="hq5-iCGdHiGfxWnnt3Ot-20" value="" style="endArrow=none;html=1;rounded=0;entryX=0;entryY=0.5;entryDx=0;entryDy=0;exitX=1;exitY=0.5;exitDx=0;exitDy=0;exitPerimeter=0;" edge="1" parent="1" source="hq5-iCGdHiGfxWnnt3Ot-1" target="hq5-iCGdHiGfxWnnt3Ot-19">
          <mxGeometry relative="1" as="geometry">
            <mxPoint x="490" y="230" as="sourcePoint" />
            <mxPoint x="650" y="230" as="targetPoint" />
          </mxGeometry>
        </mxCell>
        <mxCell id="hq5-iCGdHiGfxWnnt3Ot-36" value="&lt;font style=&quot;font-size: 12px;&quot;&gt;1&lt;/font&gt;" style="edgeLabel;html=1;align=center;verticalAlign=middle;resizable=0;points=[];" vertex="1" connectable="0" parent="hq5-iCGdHiGfxWnnt3Ot-20">
          <mxGeometry x="-0.1333" relative="1" as="geometry">
            <mxPoint x="4" y="-9" as="offset" />
          </mxGeometry>
        </mxCell>
        <mxCell id="hq5-iCGdHiGfxWnnt3Ot-21" value="" style="endArrow=none;html=1;rounded=0;entryX=0;entryY=0.5;entryDx=0;entryDy=0;exitX=1;exitY=0.5;exitDx=0;exitDy=0;" edge="1" parent="1" source="hq5-iCGdHiGfxWnnt3Ot-19" target="hq5-iCGdHiGfxWnnt3Ot-18">
          <mxGeometry relative="1" as="geometry">
            <mxPoint x="510" y="245" as="sourcePoint" />
            <mxPoint x="580" y="245" as="targetPoint" />
          </mxGeometry>
        </mxCell>
        <mxCell id="hq5-iCGdHiGfxWnnt3Ot-37" value="N" style="edgeLabel;html=1;align=center;verticalAlign=middle;resizable=0;points=[];" vertex="1" connectable="0" parent="hq5-iCGdHiGfxWnnt3Ot-21">
          <mxGeometry x="-0.2667" y="-2" relative="1" as="geometry">
            <mxPoint x="1" y="-11" as="offset" />
          </mxGeometry>
        </mxCell>
        <mxCell id="hq5-iCGdHiGfxWnnt3Ot-23" value="&lt;font style=&quot;font-size: 14px;&quot;&gt;likes&lt;/font&gt;" style="ellipse;whiteSpace=wrap;html=1;align=center;" vertex="1" parent="1">
          <mxGeometry x="830" y="30" width="100" height="40" as="geometry" />
        </mxCell>
        <mxCell id="hq5-iCGdHiGfxWnnt3Ot-24" value="&lt;font style=&quot;font-size: 14px;&quot;&gt;written date&lt;/font&gt;" style="ellipse;whiteSpace=wrap;html=1;align=center;" vertex="1" parent="1">
          <mxGeometry x="650" y="130" width="100" height="40" as="geometry" />
        </mxCell>
        <mxCell id="hq5-iCGdHiGfxWnnt3Ot-25" value="&lt;font style=&quot;font-size: 14px;&quot;&gt;written by&lt;/font&gt;" style="ellipse;whiteSpace=wrap;html=1;align=center;" vertex="1" parent="1">
          <mxGeometry x="880" y="130" width="100" height="40" as="geometry" />
        </mxCell>
        <mxCell id="hq5-iCGdHiGfxWnnt3Ot-26" value="&lt;span style=&quot;font-size: 14px;&quot;&gt;content&lt;/span&gt;" style="ellipse;whiteSpace=wrap;html=1;align=center;" vertex="1" parent="1">
          <mxGeometry x="870" y="80" width="100" height="40" as="geometry" />
        </mxCell>
        <mxCell id="hq5-iCGdHiGfxWnnt3Ot-28" value="&lt;font style=&quot;font-size: 14px;&quot;&gt;&lt;b&gt;article_id&lt;/b&gt;&lt;/font&gt;" style="ellipse;whiteSpace=wrap;html=1;align=center;fontStyle=4;" vertex="1" parent="1">
          <mxGeometry x="700" y="30" width="100" height="40" as="geometry" />
        </mxCell>
        <mxCell id="hq5-iCGdHiGfxWnnt3Ot-30" value="" style="endArrow=none;html=1;rounded=0;entryX=0;entryY=0.5;entryDx=0;entryDy=0;exitX=0.5;exitY=0;exitDx=0;exitDy=0;" edge="1" parent="1" source="hq5-iCGdHiGfxWnnt3Ot-18" target="hq5-iCGdHiGfxWnnt3Ot-25">
          <mxGeometry relative="1" as="geometry">
            <mxPoint x="445" y="220" as="sourcePoint" />
            <mxPoint x="530" y="150" as="targetPoint" />
          </mxGeometry>
        </mxCell>
        <mxCell id="hq5-iCGdHiGfxWnnt3Ot-31" value="" style="endArrow=none;html=1;rounded=0;entryX=0;entryY=0.5;entryDx=0;entryDy=0;exitX=0.5;exitY=0;exitDx=0;exitDy=0;" edge="1" parent="1" source="hq5-iCGdHiGfxWnnt3Ot-18" target="hq5-iCGdHiGfxWnnt3Ot-26">
          <mxGeometry relative="1" as="geometry">
            <mxPoint x="455" y="230" as="sourcePoint" />
            <mxPoint x="540" y="160" as="targetPoint" />
          </mxGeometry>
        </mxCell>
        <mxCell id="hq5-iCGdHiGfxWnnt3Ot-32" value="" style="endArrow=none;html=1;rounded=0;entryX=0.3;entryY=1;entryDx=0;entryDy=0;exitX=0.5;exitY=0;exitDx=0;exitDy=0;entryPerimeter=0;" edge="1" parent="1" source="hq5-iCGdHiGfxWnnt3Ot-18" target="hq5-iCGdHiGfxWnnt3Ot-23">
          <mxGeometry relative="1" as="geometry">
            <mxPoint x="465" y="240" as="sourcePoint" />
            <mxPoint x="550" y="170" as="targetPoint" />
          </mxGeometry>
        </mxCell>
        <mxCell id="hq5-iCGdHiGfxWnnt3Ot-33" value="" style="endArrow=none;html=1;rounded=0;entryX=0.627;entryY=1.017;entryDx=0;entryDy=0;exitX=0.5;exitY=0;exitDx=0;exitDy=0;entryPerimeter=0;" edge="1" parent="1" source="hq5-iCGdHiGfxWnnt3Ot-18" target="hq5-iCGdHiGfxWnnt3Ot-28">
          <mxGeometry relative="1" as="geometry">
            <mxPoint x="475" y="250" as="sourcePoint" />
            <mxPoint x="560" y="180" as="targetPoint" />
          </mxGeometry>
        </mxCell>
        <mxCell id="hq5-iCGdHiGfxWnnt3Ot-34" value="" style="endArrow=none;html=1;rounded=0;entryX=1;entryY=0.5;entryDx=0;entryDy=0;exitX=0.5;exitY=0;exitDx=0;exitDy=0;" edge="1" parent="1" source="hq5-iCGdHiGfxWnnt3Ot-18">
          <mxGeometry relative="1" as="geometry">
            <mxPoint x="485" y="260" as="sourcePoint" />
            <mxPoint x="750" y="100" as="targetPoint" />
          </mxGeometry>
        </mxCell>
        <mxCell id="hq5-iCGdHiGfxWnnt3Ot-35" value="" style="endArrow=none;html=1;rounded=0;entryX=1;entryY=0.5;entryDx=0;entryDy=0;exitX=0.5;exitY=0;exitDx=0;exitDy=0;" edge="1" parent="1" source="hq5-iCGdHiGfxWnnt3Ot-18" target="hq5-iCGdHiGfxWnnt3Ot-24">
          <mxGeometry relative="1" as="geometry">
            <mxPoint x="495" y="270" as="sourcePoint" />
            <mxPoint x="580" y="200" as="targetPoint" />
          </mxGeometry>
        </mxCell>
        <mxCell id="hq5-iCGdHiGfxWnnt3Ot-39" value="&lt;font style=&quot;font-size: 18px;&quot;&gt;&lt;b&gt;Comments&lt;/b&gt;&lt;/font&gt;" style="whiteSpace=wrap;html=1;align=center;" vertex="1" parent="1">
          <mxGeometry x="750.5" y="420" width="129" height="50" as="geometry" />
        </mxCell>
        <mxCell id="hq5-iCGdHiGfxWnnt3Ot-40" value="&lt;font style=&quot;font-size: 14px;&quot;&gt;has&lt;/font&gt;" style="shape=rhombus;perimeter=rhombusPerimeter;whiteSpace=wrap;html=1;align=center;" vertex="1" parent="1">
          <mxGeometry x="765" y="310" width="100" height="60" as="geometry" />
        </mxCell>
        <mxCell id="hq5-iCGdHiGfxWnnt3Ot-41" value="" style="endArrow=none;html=1;rounded=0;entryX=0.5;entryY=0;entryDx=0;entryDy=0;exitX=0.5;exitY=1;exitDx=0;exitDy=0;" edge="1" parent="1" source="hq5-iCGdHiGfxWnnt3Ot-40" target="hq5-iCGdHiGfxWnnt3Ot-39">
          <mxGeometry relative="1" as="geometry">
            <mxPoint x="490" y="230" as="sourcePoint" />
            <mxPoint x="650" y="230" as="targetPoint" />
          </mxGeometry>
        </mxCell>
        <mxCell id="hq5-iCGdHiGfxWnnt3Ot-46" value="N" style="edgeLabel;html=1;align=center;verticalAlign=middle;resizable=0;points=[];" vertex="1" connectable="0" parent="hq5-iCGdHiGfxWnnt3Ot-41">
          <mxGeometry x="-0.0018" y="-1" relative="1" as="geometry">
            <mxPoint x="-6" as="offset" />
          </mxGeometry>
        </mxCell>
        <mxCell id="hq5-iCGdHiGfxWnnt3Ot-42" value="" style="endArrow=none;html=1;rounded=0;exitX=0.5;exitY=0;exitDx=0;exitDy=0;entryX=0.5;entryY=1;entryDx=0;entryDy=0;" edge="1" parent="1" source="hq5-iCGdHiGfxWnnt3Ot-40" target="hq5-iCGdHiGfxWnnt3Ot-18">
          <mxGeometry relative="1" as="geometry">
            <mxPoint x="490" y="230" as="sourcePoint" />
            <mxPoint x="650" y="230" as="targetPoint" />
          </mxGeometry>
        </mxCell>
        <mxCell id="hq5-iCGdHiGfxWnnt3Ot-45" value="1" style="edgeLabel;html=1;align=center;verticalAlign=middle;resizable=0;points=[];" vertex="1" connectable="0" parent="hq5-iCGdHiGfxWnnt3Ot-42">
          <mxGeometry x="0.126" y="-2" relative="1" as="geometry">
            <mxPoint x="-8" y="5" as="offset" />
          </mxGeometry>
        </mxCell>
        <mxCell id="hq5-iCGdHiGfxWnnt3Ot-47" value="&lt;font style=&quot;font-size: 14px;&quot;&gt;&lt;b&gt;&lt;u&gt;comment_id&lt;/u&gt;&lt;/b&gt;&lt;/font&gt;" style="ellipse;whiteSpace=wrap;html=1;align=center;" vertex="1" parent="1">
          <mxGeometry x="650.5" y="530" width="100" height="40" as="geometry" />
        </mxCell>
        <mxCell id="hq5-iCGdHiGfxWnnt3Ot-48" value="&lt;font style=&quot;font-size: 14px;&quot;&gt;article_id&lt;/font&gt;" style="ellipse;whiteSpace=wrap;html=1;align=center;" vertex="1" parent="1">
          <mxGeometry x="890" y="530" width="100" height="40" as="geometry" />
        </mxCell>
        <mxCell id="hq5-iCGdHiGfxWnnt3Ot-49" value="&lt;span style=&quot;font-size: 14px;&quot;&gt;comment likes&lt;/span&gt;" style="ellipse;whiteSpace=wrap;html=1;align=center;" vertex="1" parent="1">
          <mxGeometry x="890" y="480" width="100" height="40" as="geometry" />
        </mxCell>
        <mxCell id="hq5-iCGdHiGfxWnnt3Ot-50" value="&lt;font style=&quot;font-size: 14px;&quot;&gt;comment date&lt;/font&gt;" style="ellipse;whiteSpace=wrap;html=1;align=center;" vertex="1" parent="1">
          <mxGeometry x="650" y="480" width="100" height="40" as="geometry" />
        </mxCell>
        <mxCell id="hq5-iCGdHiGfxWnnt3Ot-51" value="&lt;font style=&quot;font-size: 14px;&quot;&gt;comment by&lt;/font&gt;" style="ellipse;whiteSpace=wrap;html=1;align=center;" vertex="1" parent="1">
          <mxGeometry x="765" y="550" width="100" height="40" as="geometry" />
        </mxCell>
        <mxCell id="hq5-iCGdHiGfxWnnt3Ot-52" value="&lt;font style=&quot;font-size: 14px;&quot;&gt;[comments]&lt;/font&gt;" style="ellipse;whiteSpace=wrap;html=1;align=center;" vertex="1" parent="1">
          <mxGeometry x="650.5" y="80" width="100" height="40" as="geometry" />
        </mxCell>
        <mxCell id="hq5-iCGdHiGfxWnnt3Ot-60" value="" style="endArrow=none;html=1;rounded=0;entryX=1;entryY=0.5;entryDx=0;entryDy=0;exitX=0.5;exitY=1;exitDx=0;exitDy=0;" edge="1" parent="1" source="hq5-iCGdHiGfxWnnt3Ot-39" target="hq5-iCGdHiGfxWnnt3Ot-50">
          <mxGeometry relative="1" as="geometry">
            <mxPoint x="580" y="550" as="sourcePoint" />
            <mxPoint x="740" y="550" as="targetPoint" />
          </mxGeometry>
        </mxCell>
        <mxCell id="hq5-iCGdHiGfxWnnt3Ot-61" value="" style="endArrow=none;html=1;rounded=0;entryX=0.5;entryY=1;entryDx=0;entryDy=0;exitX=1;exitY=0.5;exitDx=0;exitDy=0;" edge="1" parent="1" source="hq5-iCGdHiGfxWnnt3Ot-47" target="hq5-iCGdHiGfxWnnt3Ot-39">
          <mxGeometry relative="1" as="geometry">
            <mxPoint x="590" y="560" as="sourcePoint" />
            <mxPoint x="750" y="560" as="targetPoint" />
          </mxGeometry>
        </mxCell>
        <mxCell id="hq5-iCGdHiGfxWnnt3Ot-62" value="" style="endArrow=none;html=1;rounded=0;entryX=0;entryY=0.5;entryDx=0;entryDy=0;" edge="1" parent="1" target="hq5-iCGdHiGfxWnnt3Ot-49">
          <mxGeometry relative="1" as="geometry">
            <mxPoint x="815" y="470" as="sourcePoint" />
            <mxPoint x="760" y="570" as="targetPoint" />
          </mxGeometry>
        </mxCell>
        <mxCell id="hq5-iCGdHiGfxWnnt3Ot-63" value="" style="endArrow=none;html=1;rounded=0;entryX=0;entryY=0.5;entryDx=0;entryDy=0;" edge="1" parent="1" target="hq5-iCGdHiGfxWnnt3Ot-48">
          <mxGeometry relative="1" as="geometry">
            <mxPoint x="814" y="470" as="sourcePoint" />
            <mxPoint x="893.9999999999966" y="549.9999999999999" as="targetPoint" />
          </mxGeometry>
        </mxCell>
        <mxCell id="hq5-iCGdHiGfxWnnt3Ot-64" value="" style="endArrow=none;html=1;rounded=0;entryX=0.5;entryY=1;entryDx=0;entryDy=0;exitX=0.5;exitY=0;exitDx=0;exitDy=0;" edge="1" parent="1" source="hq5-iCGdHiGfxWnnt3Ot-51" target="hq5-iCGdHiGfxWnnt3Ot-39">
          <mxGeometry relative="1" as="geometry">
            <mxPoint x="620" y="590" as="sourcePoint" />
            <mxPoint x="780" y="590" as="targetPoint" />
          </mxGeometry>
        </mxCell>
        <mxCell id="hq5-iCGdHiGfxWnnt3Ot-65" value="&lt;font style=&quot;font-size: 14px;&quot;&gt;Categorized_in&lt;/font&gt;" style="shape=rhombus;perimeter=rhombusPerimeter;whiteSpace=wrap;html=1;align=center;" vertex="1" parent="1">
          <mxGeometry x="930" y="200" width="120" height="70" as="geometry" />
        </mxCell>
        <mxCell id="hq5-iCGdHiGfxWnnt3Ot-66" value="" style="endArrow=none;html=1;rounded=0;entryX=0;entryY=0.5;entryDx=0;entryDy=0;" edge="1" parent="1" target="hq5-iCGdHiGfxWnnt3Ot-65">
          <mxGeometry relative="1" as="geometry">
            <mxPoint x="880" y="235" as="sourcePoint" />
            <mxPoint x="970" y="240" as="targetPoint" />
          </mxGeometry>
        </mxCell>
        <mxCell id="hq5-iCGdHiGfxWnnt3Ot-67" value="&lt;font style=&quot;font-size: 12px;&quot;&gt;1&lt;/font&gt;" style="edgeLabel;html=1;align=center;verticalAlign=middle;resizable=0;points=[];" vertex="1" connectable="0" parent="hq5-iCGdHiGfxWnnt3Ot-66">
          <mxGeometry x="0.1079" y="2" relative="1" as="geometry">
            <mxPoint y="-8" as="offset" />
          </mxGeometry>
        </mxCell>
        <mxCell id="hq5-iCGdHiGfxWnnt3Ot-68" value="&lt;font style=&quot;font-size: 18px;&quot;&gt;&lt;b&gt;Category&lt;/b&gt;&lt;/font&gt;" style="whiteSpace=wrap;html=1;align=center;" vertex="1" parent="1">
          <mxGeometry x="925" y="310" width="130" height="50" as="geometry" />
        </mxCell>
        <mxCell id="hq5-iCGdHiGfxWnnt3Ot-69" value="" style="endArrow=none;html=1;rounded=0;entryX=0.5;entryY=0;entryDx=0;entryDy=0;exitX=0.5;exitY=1;exitDx=0;exitDy=0;" edge="1" parent="1" source="hq5-iCGdHiGfxWnnt3Ot-65" target="hq5-iCGdHiGfxWnnt3Ot-68">
          <mxGeometry relative="1" as="geometry">
            <mxPoint x="680" y="360" as="sourcePoint" />
            <mxPoint x="840" y="360" as="targetPoint" />
          </mxGeometry>
        </mxCell>
        <mxCell id="hq5-iCGdHiGfxWnnt3Ot-70" value="&lt;font style=&quot;font-size: 12px;&quot;&gt;1&lt;/font&gt;" style="edgeLabel;html=1;align=center;verticalAlign=middle;resizable=0;points=[];" vertex="1" connectable="0" parent="hq5-iCGdHiGfxWnnt3Ot-69">
          <mxGeometry x="-0.2857" y="2" relative="1" as="geometry">
            <mxPoint x="-9" y="6" as="offset" />
          </mxGeometry>
        </mxCell>
        <mxCell id="hq5-iCGdHiGfxWnnt3Ot-71" value="&lt;font style=&quot;font-size: 14px;&quot;&gt;&lt;b&gt;Name&lt;/b&gt;&lt;/font&gt;" style="ellipse;whiteSpace=wrap;html=1;align=center;fontStyle=4;" vertex="1" parent="1">
          <mxGeometry x="940" y="410" width="100" height="40" as="geometry" />
        </mxCell>
        <mxCell id="hq5-iCGdHiGfxWnnt3Ot-72" value="" style="endArrow=none;html=1;rounded=0;entryX=0.5;entryY=0;entryDx=0;entryDy=0;" edge="1" parent="1" source="hq5-iCGdHiGfxWnnt3Ot-68" target="hq5-iCGdHiGfxWnnt3Ot-71">
          <mxGeometry relative="1" as="geometry">
            <mxPoint x="620" y="380" as="sourcePoint" />
            <mxPoint x="780" y="380" as="targetPoint" />
          </mxGeometry>
        </mxCell>
      </root>
    </mxGraphModel>
  </diagram>
</mxfile>
